<svg xmlns="http://www.w3.org/2000/svg" id="Group_17456" version="1.1" viewBox="0 0 157.3 45" width="100" height="100">
  <!-- Generator: Adobe Illustrator 29.1.0, SVG Export Plug-In . SVG Version: 2.1.0 Build 142)  -->
  <defs>
    <style>
      .st0 {
        fill: #006550;
      }
    </style>
  </defs>
  <rect id="Rectangle_19382" class="st0" x="54.1" y=".3" width="4.4" height="20"/>
  <path id="Path_14629" class="st0" d="M152.1,25l-5.7,8.1-5.7-8.1h-5.3l8.8,12v7.9h4.4v-7.7c0,0,8.8-12.3,8.8-12.3h-5.2Z"/>
  <g id="Group_17455">
    <g id="Group_17454">
      <path id="Path_14630" class="st0" d="M129.7,31.5c0,1.5-1.2,2.5-3.3,2.6h-5v-5h4.6c2.4,0,3.6.8,3.6,2.5M134.1,31.4c0-1.6-.6-3.2-1.8-4.3-1.7-1.4-3.9-2.2-6.1-2.1h-9.1v20h4.4v-6.9h3.6l5.4,6.9h5.4l-6.1-7.7c2.6-.8,4.3-3.2,4.3-5.9"/>
      <path id="Path_14631" class="st0" d="M98.9,29.1h4.6c2.4,0,3.6.8,3.6,2.5s-1.2,2.5-3.3,2.6h-5v-5ZM111.5,31.4c0-1.6-.6-3.2-1.8-4.3-1.7-1.4-3.9-2.2-6.1-2.1h-9.1v20h4.4v-6.9h3.6l5.4,6.9h5.4l-6.1-7.7c2.6-.8,4.3-3.2,4.3-5.9"/>
      <path id="Path_14632" class="st0" d="M73.6,25v20h15.9v-4h-11.5v-4.1h10.2v-4h-10.2v-3.9h11.4v-4h-15.7Z"/>
      <path id="Path_14633" class="st0" d="M54.1,25v20h4.4v-7.7h10.1v-4h-10.1v-4.2h11.3v-4h-15.7Z"/>
      <path id="Path_14634" class="st0" d="M90.1,10.3c0,3.3-2.5,6.1-5.9,6.2,0,0-.2,0-.3,0-3.4,0-6.2-2.8-6.2-6.2,0,0,0,0,0-.1,0-3.3,2.5-6.1,5.9-6.2,0,0,.2,0,.3,0,3.4,0,6.2,2.6,6.2,6,0,0,0,.2,0,.3M84,0c-5.7-.1-10.5,4.4-10.7,10.1,0,0,0,.1,0,.2,0,5.8,4.6,10.2,10.6,10.2,5.7.2,10.5-4.4,10.7-10.1,0,0,0-.1,0-.2C94.6,4.4,90,0,84,0"/>
      <path id="Path_14635" class="st0" d="M103.9,4.3h4.6c2.4,0,3.6.8,3.6,2.5s-1.2,2.5-3.3,2.6h-5v-5ZM103.9,13.4h3.6l5.4,6.9h5.4l-6.1-7.7c2.6-.8,4.3-3.2,4.3-5.9,0-1.6-.6-3.2-1.8-4.3-1.7-1.4-3.9-2.2-6.1-2.1h-9.1v20h4.4v-6.9Z"/>
      <path id="Path_14636" class="st0" d="M73.4.3h-5.9l-8.9,8.8,9.2,11.1h5.5l-9.2-11L73.4.3Z"/>
      <path id="Path_14637" class="st0" d="M126.4,7.7l10.3,12.5h3.4V.3h-4.3v12.2L125.7.3h-3.7v20h4.3V7.7Z"/>
      <path id="Path_14638" class="st0" d="M0,45h45V0H0v45ZM22.3,35.6h-7.8l-9.6-13.7,10.7-12.4h3.7v1.3h-3.1l-6.9,8.1,10.7,15.4h2.2v1.3ZM24.7,38.4h-1.3V6.6h1.3v31.8ZM34.4,28.2h-1.2v-.4c-.2-1.4-.4-4.8-5.5-4.8h-.5v-1.3h.5c3.6,0,5.2-1.3,5.5-4.7v-.4h1.2v11.8ZM40.1,18.5h-1.1v-.4c-1.2-4.9-3.9-7.3-8.2-7.3h-3.5v-1.3h12.9v9.1Z"/>
    </g>
  </g>
</svg>
